<svg fill="none" xmlns="http://www.w3.org/2000/svg" viewBox="0 0 100 55">
                    <path d="M36.127 41.294c2.372 0 3.836-1.44 3.836-3.758 0-2.275-1.47-3.69-3.836-3.69h-2.18v7.449h2.18Zm7.129 9.21c-2.088 0-3.286-1.098-3.286-3.011v-1.664c0-2.184-1.507-3.596-3.836-3.596h-2.18v5.763c.009.64.22 1.262.605 1.779l.783.73h-1.39c-2.067 0-3.457-1.293-3.457-3.217V32.885h7.966c2.976 0 4.964 1.897 4.964 4.72 0 1.901-.982 3.416-2.597 4.145 1.615.719 2.597 2.211 2.597 4.08v2.166c.016.643.236 1.265.63 1.779l.782.73h-1.581ZM90.258 50.496l.517-.723.011-.014a2.992 2.992 0 0 0 .616-1.779v-5.378l-3.657-7.277c-.253-.47-1.217-2.446-1.217-2.446h.452c3.596 0 4.337 1.659 4.571 2.097l2.82 5.609 3.386-5.694a135.8 135.8 0 0 0 1.042-1.699.673.673 0 0 1 .578-.313h.363a.253.253 0 0 1 .225.12.244.244 0 0 1 0 .251c-.087.14-.193.311-.313.494-.42.642-.64 1.06-.927 1.557l-3.836 6.403V48c.008.643.224 1.266.616 1.78v.013l.514.723-5.76-.02ZM66.89 50.496c-1.909 0-3.457-1.442-3.457-3.216V32.876c1.91 0 3.457 1.44 3.457 3.217v11.073c0 1.32 1.15 2.391 2.57 2.391h1.69a5.08 5.08 0 0 0 1.983-.442 5.015 5.015 0 0 0 1.641-1.181l.567-.643.306-.432a.317.317 0 0 1 .377-.111.31.31 0 0 1 .2.334l-.105.556-.582 2.867-8.647-.01ZM80.65 45.37s-1.331-3.828-5.19-3.337v-.565s2.907-.89 4.545 1.163.638 2.738.638 2.738M59.556 46.955l-.297.336-.567.642c-.46.5-1.018.902-1.642 1.181a5.08 5.08 0 0 1-1.982.443h-1.69c-1.422 0-2.57-1.072-2.57-2.391v-5.727c.325-.056.654-.079.984-.067.883.014 1.764.106 2.63.274 1.829.416 2.52.876 2.52.876a.477.477 0 0 0 0-.096.534.534 0 0 0 0-.09 2.034 2.034 0 0 0-.657-.926c-.438-.345-1.129-.81-2.823-1.19a10.295 10.295 0 0 0-2.659-.222v-6.163h4.26a5.07 5.07 0 0 1 1.982.433 5.004 5.004 0 0 1 1.645 1.173l.564.636.307.322a.32.32 0 0 0 .364.07.317.317 0 0 0 .184-.317l-.079-.413-.582-2.865H47.344v14.403c0 1.78 1.546 3.216 3.455 3.216h8.649l.582-2.867.08-.444a.31.31 0 0 0-.192-.32.322.322 0 0 0-.366.084" fill="#907676"></path>
                    <path d="M86.614 49.475a6.6 6.6 0 0 1-1.397-1.906L79.42 33.157a.463.463 0 0 0-.435-.28h-.386a.47.47 0 0 0-.433.277l-5.481 13.272s-.332.856-.325.856a1.68 1.68 0 0 0 .913-.287c.27-.182.478-.438.6-.736l3.582-8.745 4.095 10.06c.368.87.991 1.611 1.79 2.13a4.855 4.855 0 0 0 2.692.783h2.078a7.412 7.412 0 0 1-1.496-1.021M54.197 6.952c1.289-1.934.752-4.274-.853-5.836l.598-.233c-.003.23-.026.459-.068.685-.403 2.482-2.678 4.148-4.982 4.69-1.58.445-3.19.819-4.781 1.166-1.541.334-3.03.714-4.333 1.601a5.413 5.413 0 0 0-1.58 1.446 3.381 3.381 0 0 0 .014 3.78c1.207 1.78 3.696 2.367 5.714 1.691 2.281-.745 4.082-2.21 6.092-3.596 3.347-2.464 10.737-5.258 14.024-1.557 3.026 3.708.429 9.341-4.325 9.441-3.344.065-6.619-1.087-9.514-2.698-2.065-1.174-4.145-2.646-6.374-3.296-1.997-.578-4.755-.238-6.515.839-2.423 1.526-3.414 5.002-.92 6.97 2.77 2.12 7.773.92 10.452-.956 1.33-.961 2.586-2.015 3.994-2.876 2.856-1.844 6.295-3.072 9.745-2.758 1.779.134 3.656.765 4.856 2.206a5.557 5.557 0 0 1 .661 5.95c-1.717 3.298-5.819 3.034-8.845 2.11-2.322-.645-4.633-1.801-6.995-.958a6.28 6.28 0 0 0-2.03 1.243l-.118-.124c.29-.297.603-.57.936-.819 3.263-2.446 7.22.071 10.755.27 1.983.182 4.327-.305 5.205-2.28.973-2.204-.056-4.827-2.367-5.607-3.698-1.24-7.701.195-10.858 2.262-1.374.863-2.597 1.963-3.922 2.89-3.402 2.32-9.055 3.537-12.541.768-3.329-2.758-2.243-7.524 1.202-9.621 1.943-1.112 4.238-1.384 6.409-1.112 2.951.514 5.316 2.486 7.776 4.032 2.63 1.626 5.867 2.936 8.99 2.938 2.382.044 4.535-1.75 5.014-4.083a5.163 5.163 0 0 0-.035-2.312 5.207 5.207 0 0 0-1.042-2.072c-1.045-1.183-2.708-1.521-4.235-1.423-3.16.235-6.136 1.712-8.638 3.656-1.555 1.216-3.374 2.669-5.16 3.52-2.842 1.469-6.754 1.04-8.64-1.799-1.13-1.556-1.082-3.892.03-5.478.842-1.183 1.96-1.852 3.182-2.446 1.165-.534 2.458-.805 3.676-1.039 1.413-.247 3.385-.631 4.766-.963 2.232-.431 4.375-1.886 4.637-4.308L53.317 0c1.438 1.54 2.482 3.352 1.805 5.516a4.552 4.552 0 0 1-.805 1.519l-.12-.083ZM22.074 50.549c-.618-1.67-2.415-2.611-4.66-3.03-2.245-.417-4.565-.342-7.351.079-2.84.418-4.43 1.21-5.402.943a1.953 1.953 0 0 1-.377-.165 1.692 1.692 0 0 1-.375-.318c-.451-.474-.451-1.052-.451-1.648V36.32c0-1.78-1.548-3.215-3.457-3.215v12.989a8.771 8.771 0 0 0 .133 1.653c.112.731.483 1.4 1.047 1.888.799.752 2.572 1.172 3.958 1.032l.505-.056c.185-.013.303-.02.411-.03.77-.085 1.774-.368 3.069-.593h.06c.685-.12 1.375-.203 2.068-.249 1.297-.129 2.707-.198 3.745-.024 1.659.28 3.48.772 4.545 1.681 1.065.91 1.686 1.68 1.986 2.536.059.166.106.336.142.51.76-1.295.903-2.525.404-3.873" fill="#907676"></path>
                    <path d="M26.713 41.724v-.073c0-3.225-1.306-5.814-3.52-7.373l-.17-.116-.225-.138a13.232 13.232 0 0 0-.677-.391 9.972 9.972 0 0 0-4.479-.983c-5.524 0-9.091 3.543-9.091 9.025v.271c.408 4.49 3.748 3.926 4.145 3.97a12.164 12.164 0 0 1-.69-4.225c0-4.922 2.236-8.1 5.681-8.1a4.693 4.693 0 0 1 3.058 1.065c.095.078.19.162.28.249l.027.027c.08.075.155.155.225.24l.043.047a5.526 5.526 0 0 1 .528.709c.025.04.084.129.122.196l.088.153c.034.058.066.12.097.18.059.114.115.223.17.345.02.047.042.091.063.14.02.05.065.156.094.236.018.042.037.087.052.131.032.085.063.17.093.256l.038.113c.103.313.19.63.26.952 0 .034.015.067.022.1.023.103.043.207.063.314 0 .04.016.084.023.127l.052.322a.496.496 0 0 1 0 .062c.03.207.054.419.074.636 0 .065.014.13.018.196l.02.274.014.267v1.525l-.013.267-.02.274c0 .067-.012.131-.019.196-.02.222-.045.429-.074.636a.498.498 0 0 1 0 .062 9.642 9.642 0 0 1-.052.322c0 .043-.016.085-.023.127-.02.107-.04.223-.063.314 0 .033-.013.066-.022.1l-.037.133c-.04.243-.1.482-.182.714a3.742 3.742 0 0 0-.226 1.764c.072.796.88 1.357.88 1.357l.413-.28c.401-.301.77-.642 1.101-1.017l.012-.02a2.7 2.7 0 0 0 .205-.222l.02-.025c.215-.305.409-.625.58-.956v-.018a9.78 9.78 0 0 0 .997-4.448" fill="#907676"></path>
                </svg>