<svg fill="none" xmlns="http://www.w3.org/2000/svg" viewBox="0 0 50 50">
                    <path d="M20.2 9h8.967l-.935 5.424a5.556 5.556 0 0 0 1.43 4.752 11.112 11.112 0 0 1 3.022 7.618V38a3 3 0 0 1-3 3h-10a3 3 0 0 1-3-3V26.83c0-2.85 1.113-5.586 3.102-7.626a5.462 5.462 0 0 0 1.452-4.854L20.2 9Z" fill="#907676"></path>
                    <path fill="#907676" stroke="#ffffff00" stroke-width="2" d="M5.887 40.716 40.4 6.203l3.017 3.017L8.904 43.733z"></path>
                    <circle cx="25" cy="25" r="23.5" stroke="#907676" stroke-width="3"></circle>
                </svg>